<svg width="24" height="24" viewBox="0 0 24 24" fill="none" xmlns="http://www.w3.org/2000/svg">
<path d="M12 24C18.6274 24 24 18.6274 24 12C24 5.37258 18.6274 0 12 0C5.37258 0 0 5.37258 0 12C0 18.6274 5.37258 24 12 24Z" fill="#2A5F9E"/>
<path d="M12 3.91998L12.28 4.79998H13.2L12.48 5.35998L12.76 6.23998L12 5.67998L11.24 6.23998L11.52 5.35998L10.8 4.79998H11.72L12 3.91998ZM12 17.52L12.28 18.4H13.2L12.48 18.92L12.76 19.84L12 19.28L11.24 19.84L11.52 18.92L10.8 18.4H11.72L12 17.52ZM15.36 16.4L15.64 17.28H16.6L15.84 17.84L16.12 18.72L15.36 18.16L14.6 18.72L14.92 17.84L14.16 17.28H15.08L15.36 16.4ZM17.68 14.08L17.96 14.96H18.92L18.16 15.52L18.44 16.4L17.68 15.84L16.92 16.4L17.24 15.52L16.48 14.96H17.4L17.68 14.08ZM18.8 10.72L19.08 11.6H20L19.24 12.16L19.52 13.04L18.8 12.48L18.04 13.04L18.32 12.16L17.56 11.6H18.48L18.8 10.72ZM17.68 7.31998L17.96 8.23998H18.92L18.16 8.75998L18.44 9.63998L17.68 9.11998L16.92 9.63998L17.24 8.75998L16.48 8.23998H17.4L17.68 7.31998ZM15.36 4.99998L15.64 5.91998H16.6L15.84 6.43998L16.12 7.31998L15.36 6.79998L14.6 7.31998L14.92 6.43998L14.16 5.91998H15.08L15.36 4.99998ZM8.64 16.4L8.36 17.28H7.4L8.16 17.84L7.88 18.72L8.64 18.16L9.4 18.72L9.08 17.84L9.84 17.28H8.92L8.64 16.4ZM6.32 14.08L6.04 14.96H5.08L5.84 15.52L5.56 16.4L6.32 15.84L7.08 16.4L6.76 15.52L7.52 14.96H6.6L6.32 14.08ZM5.2 10.72L4.92 11.6H4L4.76 12.16L4.48 13.04L5.2 12.48L5.96 13.04L5.68 12.16L6.44 11.6H5.52L5.2 10.72ZM6.32 7.31998L6.04 8.23998H5.08L5.84 8.75998L5.56 9.63998L6.32 9.11998L7.08 9.63998L6.76 8.75998L7.52 8.23998H6.6L6.32 7.31998ZM8.64 4.99998L8.36 5.91998H7.4L8.16 6.43998L7.88 7.31998L8.64 6.79998L9.4 7.31998L9.08 6.43998L9.84 5.91998H8.92L8.64 4.99998Z" fill="#FFCE31"/>
</svg>
